<svg width="942" height="323" viewBox="0 0 942 323" fill="none" xmlns="http://www.w3.org/2000/svg">
<path d="M372.701 245.798C371.899 245.798 371.179 245.558 370.539 245.078C370.057 244.438 369.817 243.717 369.817 242.917V216.97C369.817 215.688 370.217 214.488 371.019 213.367L448.616 108.141C448.936 107.82 448.936 107.5 448.616 107.18C448.456 106.859 448.136 106.699 447.656 106.699H372.701C371.899 106.699 371.179 106.459 370.539 105.978C370.057 105.338 369.817 104.617 369.817 103.816V80.5128C369.817 79.712 370.057 79.0714 370.539 78.5909C371.179 77.9501 371.899 77.6297 372.701 77.6297H483.933C484.733 77.6297 485.374 77.9501 485.854 78.5909C486.494 79.0714 486.816 79.712 486.816 80.5128V106.459C486.816 107.74 486.414 108.941 485.614 110.062L408.015 215.288C407.855 215.608 407.855 215.928 408.015 216.25C408.177 216.57 408.497 216.73 408.977 216.73H483.933C484.733 216.73 485.374 217.05 485.854 217.692C486.494 218.171 486.816 218.811 486.816 219.613V242.917C486.816 243.717 486.494 244.438 485.854 245.078C485.374 245.558 484.733 245.798 483.933 245.798H372.701ZM571.476 248.482C558.792 248.482 547.571 245.88 537.814 240.677C528.219 235.473 520.738 228.236 515.372 218.967C510.005 209.534 507.323 198.721 507.323 186.524V134.324C507.323 122.29 510.005 111.638 515.372 102.369C520.738 93.0998 528.219 85.9446 537.814 80.9034C547.571 75.6997 558.792 73.0978 571.476 73.0978C584.323 73.0978 595.544 75.6997 605.137 80.9034C614.894 85.9446 622.457 93.0998 627.824 102.369C633.191 111.638 635.873 122.29 635.873 134.324V186.524C635.873 198.721 633.191 209.534 627.824 218.967C622.457 228.398 614.894 235.717 605.137 240.919C595.544 245.962 584.323 248.482 571.476 248.482ZM571.476 218.967C580.421 218.967 587.656 216.121 593.186 210.43C598.715 204.738 601.479 197.176 601.479 187.744V134.08C601.479 124.648 598.715 117.086 593.186 111.394C587.82 105.54 580.583 102.613 571.476 102.613C562.533 102.613 555.296 105.54 549.765 111.394C544.401 117.086 541.716 124.648 541.716 134.08V187.744C541.716 197.176 544.401 204.738 549.765 210.43C555.296 216.121 562.533 218.967 571.476 218.967ZM778.152 75.0492C778.964 75.0492 779.614 75.3744 780.102 76.0249C780.754 76.5128 781.078 77.1632 781.078 77.9763V101.881C781.078 102.694 780.754 103.426 780.102 104.077C779.614 104.564 778.964 104.808 778.152 104.808H734.489C733.675 104.808 733.269 105.215 733.269 106.028V242.872C733.269 243.686 732.943 244.416 732.293 245.068C731.805 245.556 731.155 245.798 730.341 245.798H701.802C700.99 245.798 700.258 245.556 699.608 245.068C699.119 244.416 698.875 243.686 698.875 242.872V106.028C698.875 105.215 698.469 104.808 697.655 104.808H655.213C654.399 104.808 653.666 104.564 653.016 104.077C652.528 103.426 652.284 102.694 652.284 101.881V77.9763C652.284 77.1632 652.528 76.5128 653.016 76.0249C653.666 75.3744 654.399 75.0492 655.213 75.0492H778.152ZM893.765 77.9763C893.765 77.1632 894.009 76.5128 894.497 76.0249C895.147 75.3744 895.879 75.0492 896.691 75.0492H925.23C926.044 75.0492 926.694 75.3744 927.182 76.0249C927.832 76.5128 928.158 77.1632 928.158 77.9763V242.872C928.158 243.686 927.832 244.416 927.182 245.068C926.694 245.556 926.044 245.798 925.23 245.798H896.691C895.879 245.798 895.147 245.556 894.497 245.068C894.009 244.416 893.765 243.686 893.765 242.872V175.548C893.765 174.735 893.357 174.328 892.544 174.328H838.637C837.822 174.328 837.416 174.735 837.416 175.548V242.872C837.416 243.686 837.092 244.416 836.44 245.068C835.952 245.556 835.302 245.798 834.49 245.798H805.949C805.137 245.798 804.405 245.556 803.755 245.068C803.267 244.416 803.023 243.686 803.023 242.872V77.9763C803.023 77.1632 803.267 76.5128 803.755 76.0249C804.405 75.3744 805.137 75.0492 805.949 75.0492H834.49C835.302 75.0492 835.952 75.3744 836.44 76.0249C837.092 76.5128 837.416 77.1632 837.416 77.9763V143.593C837.416 144.406 837.822 144.813 838.637 144.813H892.544C893.357 144.813 893.765 144.406 893.765 143.593V77.9763Z" fill="#222222"/>
<g filter="url(#filter0_d_820_7524)">
<mask id="mask0_820_7524" style="mask-type:luminance" maskUnits="userSpaceOnUse" x="18" y="24" width="268" height="270">
<path d="M285.194 157.993C285.194 84.2147 225.385 24.406 151.607 24.406C77.8291 24.406 18.0204 84.2147 18.0204 157.993V159.736C18.0204 233.513 77.8291 293.322 151.607 293.322C225.385 293.322 285.194 233.513 285.194 159.736V157.993Z" fill="white"/>
</mask>
<g mask="url(#mask0_820_7524)">
<path d="M264.323 24.406H38.8918C27.3648 24.406 18.0204 33.8116 18.0204 45.4136V272.315C18.0204 283.918 27.3648 293.322 38.8918 293.322H264.323C275.85 293.322 285.192 283.918 285.192 272.315V45.4136C285.192 33.8116 275.85 24.406 264.323 24.406Z" fill="black"/>
</g>
<path d="M117.13 73.0528C119.661 73.0528 121.712 70.9879 121.712 68.4408C121.712 65.8937 119.661 63.8289 117.13 63.8289C114.6 63.8289 112.548 65.8937 112.548 68.4408C112.548 70.9879 114.6 73.0528 117.13 73.0528Z" fill="white"/>
<path d="M127.595 83.5805C130.126 83.5805 132.177 81.5157 132.177 78.9685C132.177 76.4214 130.126 74.3566 127.595 74.3566C125.064 74.3566 123.013 76.4214 123.013 78.9685C123.013 81.5157 125.064 83.5805 127.595 83.5805Z" fill="white"/>
<path d="M138.059 94.1291C140.589 94.1291 142.641 92.0643 142.641 89.5172C142.641 86.9702 140.589 84.9052 138.059 84.9052C135.528 84.9052 133.477 86.9702 133.477 89.5172C133.477 92.0643 135.528 94.1291 138.059 94.1291Z" fill="white"/>
<path d="M148.53 104.652C151.061 104.652 153.112 102.587 153.112 100.04C153.112 97.4934 151.061 95.4284 148.53 95.4284C145.999 95.4284 143.948 97.4934 143.948 100.04C143.948 102.587 145.999 104.652 148.53 104.652Z" fill="white"/>
<path d="M158.994 115.185C161.524 115.185 163.576 113.12 163.576 110.573C163.576 108.025 161.524 105.961 158.994 105.961C156.463 105.961 154.412 108.025 154.412 110.573C154.412 113.12 156.463 115.185 158.994 115.185Z" fill="white"/>
<path d="M169.457 125.716C171.988 125.716 174.039 123.651 174.039 121.104C174.039 118.557 171.988 116.492 169.457 116.492C166.927 116.492 164.875 118.557 164.875 121.104C164.875 123.651 166.927 125.716 169.457 125.716Z" fill="white"/>
<path d="M179.917 136.249C182.448 136.249 184.499 134.184 184.499 131.637C184.499 129.089 182.448 127.025 179.917 127.025C177.386 127.025 175.335 129.089 175.335 131.637C175.335 134.184 177.386 136.249 179.917 136.249Z" fill="white"/>
<path d="M190.382 146.78C192.912 146.78 194.964 144.715 194.964 142.168C194.964 139.621 192.912 137.556 190.382 137.556C187.851 137.556 185.799 139.621 185.799 142.168C185.799 144.715 187.851 146.78 190.382 146.78Z" fill="white"/>
<path d="M138.496 72.6192C141.027 72.6192 143.078 70.5544 143.078 68.0073C143.078 65.4601 141.027 63.3953 138.496 63.3953C135.966 63.3953 133.914 65.4601 133.914 68.0073C133.914 70.5544 135.966 72.6192 138.496 72.6192Z" fill="white"/>
<path d="M148.948 83.1515C151.478 83.1515 153.53 81.0866 153.53 78.5395C153.53 75.9924 151.478 73.9276 148.948 73.9276C146.417 73.9276 144.366 75.9924 144.366 78.5395C144.366 81.0866 146.417 83.1515 148.948 83.1515Z" fill="white"/>
<path d="M159.435 93.6872C161.966 93.6872 164.017 91.6224 164.017 89.0753C164.017 86.5281 161.966 84.4633 159.435 84.4633C156.905 84.4633 154.853 86.5281 154.853 89.0753C154.853 91.6224 156.905 93.6872 159.435 93.6872Z" fill="white"/>
<path d="M169.887 104.219C172.417 104.219 174.469 102.154 174.469 99.6074C174.469 97.0603 172.417 94.9955 169.887 94.9955C167.356 94.9955 165.305 97.0603 165.305 99.6074C165.305 102.154 167.356 104.219 169.887 104.219Z" fill="white"/>
<path d="M180.35 114.751C182.881 114.751 184.933 112.686 184.933 110.139C184.933 107.592 182.881 105.527 180.35 105.527C177.82 105.527 175.768 107.592 175.768 110.139C175.768 112.686 177.82 114.751 180.35 114.751Z" fill="white"/>
<path d="M190.814 125.287C193.345 125.287 195.396 123.222 195.396 120.675C195.396 118.128 193.345 116.063 190.814 116.063C188.283 116.063 186.232 118.128 186.232 120.675C186.232 123.222 188.283 125.287 190.814 125.287Z" fill="white"/>
<path d="M201.278 135.819C203.808 135.819 205.86 133.754 205.86 131.207C205.86 128.66 203.808 126.595 201.278 126.595C198.747 126.595 196.696 128.66 196.696 131.207C196.696 133.754 198.747 135.819 201.278 135.819Z" fill="white"/>
<path d="M211.803 146.419C214.334 146.419 216.384 144.354 216.384 141.807C216.384 139.26 214.334 137.195 211.803 137.195C209.273 137.195 207.22 139.26 207.22 141.807C207.22 144.354 209.273 146.419 211.803 146.419Z" fill="white"/>
<path d="M200.912 157.388C203.443 157.388 205.495 155.324 205.495 152.777C205.495 150.229 203.443 148.165 200.912 148.165C198.382 148.165 196.33 150.229 196.33 152.777C196.33 155.324 198.382 157.388 200.912 157.388Z" fill="white"/>
<path d="M190.029 168.35C192.56 168.35 194.611 166.285 194.611 163.738C194.611 161.191 192.56 159.126 190.029 159.126C187.498 159.126 185.447 161.191 185.447 163.738C185.447 166.285 187.498 168.35 190.029 168.35Z" fill="white"/>
<path d="M179.5 157.746C182.031 157.746 184.082 155.681 184.082 153.134C184.082 150.587 182.031 148.522 179.5 148.522C176.97 148.522 174.918 150.587 174.918 153.134C174.918 155.681 176.97 157.746 179.5 157.746Z" fill="white"/>
<path d="M179.14 179.315C181.67 179.315 183.722 177.251 183.722 174.703C183.722 172.156 181.67 170.091 179.14 170.091C176.609 170.091 174.558 172.156 174.558 174.703C174.558 177.251 176.609 179.315 179.14 179.315Z" fill="white"/>
<path d="M168.595 168.715C171.126 168.715 173.177 166.65 173.177 164.103C173.177 161.556 171.126 159.491 168.595 159.491C166.065 159.491 164.013 161.556 164.013 164.103C164.013 166.65 166.065 168.715 168.595 168.715Z" fill="white"/>
<path d="M168.243 190.285C170.773 190.285 172.825 188.22 172.825 185.673C172.825 183.126 170.773 181.061 168.243 181.061C165.712 181.061 163.661 183.126 163.661 185.673C163.661 188.22 165.712 190.285 168.243 190.285Z" fill="white"/>
<path d="M157.698 179.68C160.229 179.68 162.28 177.616 162.28 175.068C162.28 172.521 160.229 170.457 157.698 170.457C155.167 170.457 153.116 172.521 153.116 175.068C153.116 177.616 155.167 179.68 157.698 179.68Z" fill="white"/>
<path d="M188.312 254.335C190.842 254.335 192.894 252.27 192.894 249.723C192.894 247.176 190.842 245.111 188.312 245.111C185.781 245.111 183.73 247.176 183.73 249.723C183.73 252.27 185.781 254.335 188.312 254.335Z" fill="white"/>
<path d="M177.844 243.807C180.375 243.807 182.426 241.742 182.426 239.195C182.426 236.648 180.375 234.583 177.844 234.583C175.314 234.583 173.262 236.648 173.262 239.195C173.262 241.742 175.314 243.807 177.844 243.807Z" fill="white"/>
<path d="M167.371 233.266C169.901 233.266 171.953 231.201 171.953 228.654C171.953 226.108 169.901 224.042 167.371 224.042C164.84 224.042 162.789 226.108 162.789 228.654C162.789 231.201 164.84 233.266 167.371 233.266Z" fill="white"/>
<path d="M156.911 222.744C159.442 222.744 161.493 220.679 161.493 218.133C161.493 215.586 159.442 213.521 156.911 213.521C154.38 213.521 152.329 215.586 152.329 218.133C152.329 220.679 154.38 222.744 156.911 222.744Z" fill="white"/>
<path d="M146.452 212.216C148.982 212.216 151.034 210.151 151.034 207.604C151.034 205.057 148.982 202.992 146.452 202.992C143.921 202.992 141.87 205.057 141.87 207.604C141.87 210.151 143.921 212.216 146.452 212.216Z" fill="white"/>
<path d="M135.988 201.675C138.519 201.675 140.57 199.61 140.57 197.063C140.57 194.516 138.519 192.451 135.988 192.451C133.457 192.451 131.406 194.516 131.406 197.063C131.406 199.61 133.457 201.675 135.988 201.675Z" fill="white"/>
<path d="M125.524 191.143C128.055 191.143 130.106 189.078 130.106 186.531C130.106 183.984 128.055 181.919 125.524 181.919C122.994 181.919 120.942 183.984 120.942 186.531C120.942 189.078 122.994 191.143 125.524 191.143Z" fill="white"/>
<path d="M115.043 180.616C117.573 180.616 119.625 178.551 119.625 176.004C119.625 173.457 117.573 171.392 115.043 171.392C112.512 171.392 110.461 173.457 110.461 176.004C110.461 178.551 112.512 180.616 115.043 180.616Z" fill="white"/>
<path d="M166.938 254.772C169.469 254.772 171.52 252.707 171.52 250.16C171.52 247.613 169.469 245.548 166.938 245.548C164.408 245.548 162.356 247.613 162.356 250.16C162.356 252.707 164.408 254.772 166.938 254.772Z" fill="white"/>
<path d="M156.478 244.246C159.008 244.246 161.06 242.181 161.06 239.634C161.06 237.087 159.008 235.022 156.478 235.022C153.947 235.022 151.895 237.087 151.895 239.634C151.895 242.181 153.947 244.246 156.478 244.246Z" fill="white"/>
<path d="M146.018 233.709C148.549 233.709 150.6 231.644 150.6 229.097C150.6 226.55 148.549 224.485 146.018 224.485C143.487 224.485 141.436 226.55 141.436 229.097C141.436 231.644 143.487 233.709 146.018 233.709Z" fill="white"/>
<path d="M135.554 223.181C138.085 223.181 140.136 221.116 140.136 218.569C140.136 216.022 138.085 213.957 135.554 213.957C133.024 213.957 130.972 216.022 130.972 218.569C130.972 221.116 133.024 223.181 135.554 223.181Z" fill="white"/>
<path d="M125.099 212.641C127.629 212.641 129.681 210.576 129.681 208.029C129.681 205.482 127.629 203.417 125.099 203.417C122.568 203.417 120.517 205.482 120.517 208.029C120.517 210.576 122.568 212.641 125.099 212.641Z" fill="white"/>
<path d="M114.635 202.113C117.166 202.113 119.217 200.048 119.217 197.501C119.217 194.954 117.166 192.889 114.635 192.889C112.104 192.889 110.053 194.954 110.053 197.501C110.053 200.048 112.104 202.113 114.635 202.113Z" fill="white"/>
<path d="M104.168 191.582C106.698 191.582 108.75 189.516 108.75 186.97C108.75 184.422 106.698 182.358 104.168 182.358C101.637 182.358 99.5853 184.422 99.5853 186.97C99.5853 189.516 101.637 191.582 104.168 191.582Z" fill="white"/>
<path d="M93.6229 180.977C96.1534 180.977 98.2049 178.912 98.2049 176.365C98.2049 173.818 96.1534 171.753 93.6229 171.753C91.0921 171.753 89.0406 173.818 89.0406 176.365C89.0406 178.912 91.0921 180.977 93.6229 180.977Z" fill="white"/>
<path d="M104.52 170.008C107.051 170.008 109.102 167.943 109.102 165.396C109.102 162.849 107.051 160.784 104.52 160.784C101.989 160.784 99.9379 162.849 99.9379 165.396C99.9379 167.943 101.989 170.008 104.52 170.008Z" fill="white"/>
<path d="M115.412 159.051C117.943 159.051 119.994 156.986 119.994 154.439C119.994 151.891 117.943 149.827 115.412 149.827C112.881 149.827 110.83 151.891 110.83 154.439C110.83 156.986 112.881 159.051 115.412 159.051Z" fill="white"/>
<path d="M125.945 169.655C128.475 169.655 130.527 167.59 130.527 165.043C130.527 162.496 128.475 160.431 125.945 160.431C123.414 160.431 121.363 162.496 121.363 165.043C121.363 167.59 123.414 169.655 125.945 169.655Z" fill="white"/>
<path d="M126.305 148.081C128.836 148.081 130.887 146.016 130.887 143.469C130.887 140.922 128.836 138.857 126.305 138.857C123.775 138.857 121.723 140.922 121.723 143.469C121.723 146.016 123.775 148.081 126.305 148.081Z" fill="white"/>
<path d="M136.838 158.681C139.368 158.681 141.42 156.616 141.42 154.069C141.42 151.522 139.368 149.457 136.838 149.457C134.307 149.457 132.256 151.522 132.256 154.069C132.256 156.616 134.307 158.681 136.838 158.681Z" fill="white"/>
<path d="M137.203 137.112C139.734 137.112 141.785 135.047 141.785 132.5C141.785 129.953 139.734 127.888 137.203 127.888C134.673 127.888 132.621 129.953 132.621 132.5C132.621 135.047 134.673 137.112 137.203 137.112Z" fill="white"/>
<path d="M147.735 147.716C150.266 147.716 152.317 145.651 152.317 143.104C152.317 140.557 150.266 138.492 147.735 138.492C145.205 138.492 143.153 140.557 143.153 143.104C143.153 145.651 145.205 147.716 147.735 147.716Z" fill="white"/>
</g>
<defs>
<filter id="filter0_d_820_7524" x="1.42629" y="7.81191" width="311.423" height="313.167" filterUnits="userSpaceOnUse" color-interpolation-filters="sRGB">
<feFlood flood-opacity="0" result="BackgroundImageFix"/>
<feColorMatrix in="SourceAlpha" type="matrix" values="0 0 0 0 0 0 0 0 0 0 0 0 0 0 0 0 0 0 127 0" result="hardAlpha"/>
<feOffset dx="5.53137" dy="5.53137"/>
<feGaussianBlur stdDeviation="11.0627"/>
<feComposite in2="hardAlpha" operator="out"/>
<feColorMatrix type="matrix" values="0 0 0 0 0 0 0 0 0 0 0 0 0 0 0 0 0 0 0.25 0"/>
<feBlend mode="normal" in2="BackgroundImageFix" result="effect1_dropShadow_820_7524"/>
<feBlend mode="normal" in="SourceGraphic" in2="effect1_dropShadow_820_7524" result="shape"/>
</filter>
</defs>
</svg>
